<?xml version="1.0" encoding="iso-8859-1"?>
<!-- Generator: Adobe Illustrator 19.0.0, SVG Export Plug-In . SVG Version: 6.00 Build 0)  -->
<svg version="1.1" id="Capa_1" xmlns="http://www.w3.org/2000/svg" xmlns:xlink="http://www.w3.org/1999/xlink" x="0px" y="0px"
	 viewBox="0 0 512 512" style="enable-background:new 0 0 512 512;" xml:space="preserve">
<g>
	<g>
		<path d="M465.408,365.077l-234.667-192c-3.2-2.603-7.595-3.157-11.307-1.365c-3.733,1.749-6.101,5.504-6.101,9.621v320
			c0,4.693,3.093,8.853,7.573,10.219c1.024,0.299,2.069,0.448,3.093,0.448c3.499,0,6.848-1.728,8.875-4.757L315.05,384h143.616
			c4.501,0,8.512-2.837,10.048-7.083C470.229,372.672,468.906,367.936,465.408,365.077z"/>
	</g>
</g>
<g>
	<g>
		<path d="M223.999,0c-5.888,0-10.667,4.779-10.667,10.667V96c0,5.888,4.779,10.667,10.667,10.667s10.667-4.779,10.667-10.667
			V10.667C234.666,4.779,229.887,0,223.999,0z"/>
	</g>
</g>
<g>
	<g>
		<path d="M138.666,170.667H53.333c-5.888,0-10.667,4.779-10.667,10.667S47.445,192,53.333,192h85.333
			c5.888,0,10.667-4.779,10.667-10.667S144.554,170.667,138.666,170.667z"/>
	</g>
</g>
<g>
	<g>
		<path d="M394.666,170.667h-85.333c-5.888,0-10.667,4.779-10.667,10.667S303.445,192,309.333,192h85.333
			c5.888,0,10.667-4.779,10.667-10.667S400.554,170.667,394.666,170.667z"/>
	</g>
</g>
<g>
	<g>
		<path d="M171.199,113.451L110.848,53.12c-4.16-4.16-10.923-4.16-15.083,0c-4.16,4.16-4.16,10.923,0,15.083l60.352,60.331
			c2.091,2.069,4.821,3.115,7.552,3.115c2.731,0,5.461-1.024,7.531-3.115C175.359,124.373,175.359,117.611,171.199,113.451z"/>
	</g>
</g>
<g>
	<g>
		<path d="M171.199,234.155c-4.16-4.16-10.923-4.16-15.083,0l-60.352,60.331c-4.16,4.16-4.16,10.923,0,15.083
			c2.091,2.069,4.821,3.115,7.552,3.115c2.731,0,5.461-1.045,7.531-3.136l60.352-60.309
			C175.359,245.077,175.359,238.315,171.199,234.155z"/>
	</g>
</g>
<g>
	<g>
		<path d="M352.213,53.12c-4.16-4.16-10.923-4.16-15.083,0l-60.352,60.331c-4.16,4.16-4.16,10.923,0,15.083
			c2.091,2.069,4.821,3.115,7.552,3.115c2.731,0,5.461-1.024,7.531-3.115l60.352-60.331C356.373,64.043,356.373,57.28,352.213,53.12
			z"/>
	</g>
</g>
</svg>
