<?xml version="1.0" encoding="UTF-8" standalone="no"?>
<!-- Creator: CorelDRAW X8 -->

<svg
   xmlns:dc="http://purl.org/dc/elements/1.1/"
   xmlns:cc="http://creativecommons.org/ns#"
   xmlns:rdf="http://www.w3.org/1999/02/22-rdf-syntax-ns#"
   xmlns:svg="http://www.w3.org/2000/svg"
   xmlns="http://www.w3.org/2000/svg"
   xmlns:sodipodi="http://sodipodi.sourceforge.net/DTD/sodipodi-0.dtd"
   xmlns:inkscape="http://www.inkscape.org/namespaces/inkscape"
   xml:space="preserve"
   width="170.39166mm"
   height="87.841667mm"
   version="1.1"
   style="clip-rule:evenodd;fill-rule:evenodd;image-rendering:optimizeQuality;shape-rendering:geometricPrecision;text-rendering:geometricPrecision"
   viewBox="0 0 17039.167 8784.167"
   id="svg26"
   sodipodi:docname="not-found-cloud.svg"
   inkscape:version="0.92.2 (5c3e80d, 2017-08-06)"
   inkscape:export-filename="D:\Projetos\short-url\ShortURL-FRONT\ShortURL\src\assets\img\not-found.png"
   inkscape:export-xdpi="35.323086"
   inkscape:export-ydpi="35.323086"><metadata
     id="metadata30"><rdf:RDF><cc:Work
         rdf:about=""><dc:format>image/svg+xml</dc:format><dc:type
           rdf:resource="http://purl.org/dc/dcmitype/StillImage" /><dc:title /></cc:Work></rdf:RDF></metadata><sodipodi:namedview
     pagecolor="#ffffff"
     bordercolor="#666666"
     borderopacity="1"
     objecttolerance="10"
     gridtolerance="10"
     guidetolerance="10"
     inkscape:pageopacity="0"
     inkscape:pageshadow="2"
     inkscape:window-width="1440"
     inkscape:window-height="847"
     id="namedview28"
     showgrid="false"
     inkscape:zoom="0.1767767"
     inkscape:cx="-335.39228"
     inkscape:cy="728.36949"
     inkscape:window-x="-8"
     inkscape:window-y="-8"
     inkscape:window-maximized="1"
     inkscape:current-layer="layer2"
     fit-margin-top="0"
     fit-margin-left="0"
     fit-margin-right="0"
     fit-margin-bottom="0" /><defs
     id="defs7"><style
       type="text/css"
       id="style2"><![CDATA[
    .fil0 {fill:#D22630}
   ]]></style><clipPath
       id="id0"><rect
         x="11976"
         y="8093"
         width="3865"
         height="2531"
         id="rect4" /></clipPath></defs><g
     inkscape:groupmode="layer"
     id="layer2"
     inkscape:label="Layer 2"
     transform="translate(31571.226,37259.735)"><path
       style="opacity:1;fill:#ffffff;fill-opacity:0.52888888;stroke:none;stroke-width:12.91282654;stroke-miterlimit:4;stroke-dasharray:none;stroke-opacity:1"
       d="m -936,150.73242 a 144,106.71428 0 0 0 -121.1543,49.2461 128,94.857149 0 0 0 -58.8457,-10.70899 128,94.857149 0 0 0 -128,94.85742 128,94.857149 0 0 0 25.502,56.64844 224,90.410714 0 0 0 -1.502,10.04688 224,90.410714 0 0 0 177.7734,88.43164 A 146,82.999998 0 0 0 -914,482.73242 146,82.999998 0 0 0 -778.70312,430.77344 213.94118,112.64286 0 0 0 -600,319.69727 213.94118,112.64286 0 0 0 -809.10547,207.18164 144,106.71428 0 0 0 -936,150.73242 Z"
       transform="matrix(26.458335,0,0,26.458335,1342.9424,-41247.864)"
       id="path840"
       inkscape:connector-curvature="0" /></g></svg>